<svg width="33" height="30" viewBox="0 0 33 30" fill="none" xmlns="http://www.w3.org/2000/svg">
<path d="M27.5857 29.5008C26.9375 29.4886 26.3199 29.2229 25.8655 28.7605C25.4111 28.2981 25.1561 27.6761 25.1551 27.0278C25.1542 26.3795 25.4075 25.7567 25.8606 25.293C26.3137 24.8294 26.9305 24.5618 27.5786 24.5478C28.2268 24.5338 28.8545 24.7744 29.3272 25.2181C29.7999 25.6617 30.0799 26.273 30.107 26.9207C30.1341 27.5684 29.9062 28.2009 29.4722 28.6825C29.0382 29.1641 28.4327 29.4563 27.7857 29.4965L27.5857 29.5008ZM8.08424 27.242C8.07278 26.7121 8.21871 26.1907 8.5036 25.7437C8.78848 25.2967 9.19952 24.9442 9.68473 24.7308C10.1699 24.5174 10.7075 24.4527 11.2295 24.5449C11.7515 24.637 12.2344 24.8819 12.6173 25.2485C13.0001 25.6151 13.2657 26.087 13.3803 26.6045C13.4949 27.122 13.4534 27.6619 13.2612 28.1559C13.069 28.6498 12.7347 29.0757 12.3004 29.3797C11.8662 29.6836 11.3516 29.852 10.8216 29.8634C10.4696 29.8713 10.1194 29.8097 9.79123 29.6822C9.46301 29.5548 9.16315 29.3638 8.90875 29.1204C8.65435 28.8769 8.45047 28.5858 8.30866 28.2635C8.16685 27.9412 8.08991 27.5941 8.08229 27.2421L8.08424 27.242ZM11.7616 21.5272C11.5022 21.5335 11.2478 21.4546 11.0377 21.3025C10.8275 21.1504 10.6731 20.9335 10.5981 20.6851L5.38868 3.33873L1.99653 3.41211C1.68312 3.41889 1.37983 3.30089 1.15342 3.08406C0.927011 2.86724 0.796015 2.56936 0.789235 2.25595C0.782455 1.94253 0.900448 1.63927 1.11727 1.41286C1.33409 1.18645 1.63199 1.05544 1.9454 1.04866L6.22541 0.956076C6.48482 0.949651 6.73913 1.0287 6.94919 1.18104C7.15926 1.33338 7.31335 1.55056 7.38783 1.79913L12.5972 19.1455L25.7721 18.8605L29.9368 8.72009L15.3403 9.03584C15.1822 9.04386 15.0242 9.02009 14.8755 8.96594C14.7268 8.91178 14.5905 8.82834 14.4746 8.72057C14.3587 8.61279 14.2657 8.48286 14.2009 8.33846C14.1361 8.19407 14.101 8.03816 14.0976 7.87994C14.0941 7.72173 14.1225 7.56444 14.181 7.41738C14.2394 7.27033 14.3268 7.13649 14.4379 7.0238C14.549 6.91111 14.6816 6.82186 14.8278 6.76133C14.974 6.7008 15.1309 6.67021 15.2891 6.67139L31.6982 6.31643C31.8939 6.31215 32.0875 6.35668 32.2616 6.44599C32.4357 6.53531 32.5848 6.66659 32.6955 6.82798C32.8069 6.98989 32.8766 7.17684 32.8982 7.37217C32.9199 7.5675 32.893 7.76516 32.8198 7.94755L27.6845 20.4735C27.5967 20.6861 27.449 20.8686 27.2592 20.9986C27.0695 21.1286 26.8461 21.2006 26.6161 21.2058L11.7616 21.5272Z" fill="#E8E8E8"/>
</svg>
